<svg id="my-svg" width="100%" xmlns="http://www.w3.org/2000/svg" xmlns:xlink="http://www.w3.org/1999/xlink" class="classDiagram" style="max-width: 1018.02px; background-color: white;" viewBox="0 0 1018.021484375 674" role="graphics-document document" aria-roledescription="classDiagram"><style>#my-svg{font-family:"trebuchet ms",verdana,arial,sans-serif;font-size:16px;fill:#333;}@keyframes edge-animation-frame{from{stroke-dashoffset:0;}}@keyframes dash{to{stroke-dashoffset:0;}}#my-svg .edge-animation-slow{stroke-dasharray:9,5!important;stroke-dashoffset:900;animation:dash 50s linear infinite;stroke-linecap:round;}#my-svg .edge-animation-fast{stroke-dasharray:9,5!important;stroke-dashoffset:900;animation:dash 20s linear infinite;stroke-linecap:round;}#my-svg .error-icon{fill:#552222;}#my-svg .error-text{fill:#552222;stroke:#552222;}#my-svg .edge-thickness-normal{stroke-width:1px;}#my-svg .edge-thickness-thick{stroke-width:3.5px;}#my-svg .edge-pattern-solid{stroke-dasharray:0;}#my-svg .edge-thickness-invisible{stroke-width:0;fill:none;}#my-svg .edge-pattern-dashed{stroke-dasharray:3;}#my-svg .edge-pattern-dotted{stroke-dasharray:2;}#my-svg .marker{fill:#333333;stroke:#333333;}#my-svg .marker.cross{stroke:#333333;}#my-svg svg{font-family:"trebuchet ms",verdana,arial,sans-serif;font-size:16px;}#my-svg p{margin:0;}#my-svg g.classGroup text{fill:#9370DB;stroke:none;font-family:"trebuchet ms",verdana,arial,sans-serif;font-size:10px;}#my-svg g.classGroup text .title{font-weight:bolder;}#my-svg .cluster-label text{fill:#333;}#my-svg .cluster-label span{color:#333;}#my-svg .cluster-label span p{background-color:transparent;}#my-svg .cluster rect{fill:#ffffde;stroke:#aaaa33;stroke-width:1px;}#my-svg .cluster text{fill:#333;}#my-svg .cluster span{color:#333;}#my-svg .nodeLabel,#my-svg .edgeLabel{color:#131300;}#my-svg .noteLabel .nodeLabel,#my-svg .noteLabel .edgeLabel{color:black;}#my-svg .edgeLabel .label rect{fill:#ECECFF;}#my-svg .label text{fill:#131300;}#my-svg .labelBkg{background:#ECECFF;}#my-svg .edgeLabel .label span{background:#ECECFF;}#my-svg .classTitle{font-weight:bolder;}#my-svg .node rect,#my-svg .node circle,#my-svg .node ellipse,#my-svg .node polygon,#my-svg .node path{fill:#ECECFF;stroke:#9370DB;stroke-width:1;}#my-svg .divider{stroke:#9370DB;stroke-width:1;}#my-svg g.clickable{cursor:pointer;}#my-svg g.classGroup rect{fill:#ECECFF;stroke:#9370DB;}#my-svg g.classGroup line{stroke:#9370DB;stroke-width:1;}#my-svg .classLabel .box{stroke:none;stroke-width:0;fill:#ECECFF;opacity:0.5;}#my-svg .classLabel .label{fill:#9370DB;font-size:10px;}#my-svg .relation{stroke:#333333;stroke-width:1;fill:none;}#my-svg .dashed-line{stroke-dasharray:3;}#my-svg .dotted-line{stroke-dasharray:1 2;}#my-svg [id$="-compositionStart"],#my-svg .composition{fill:#333333!important;stroke:#333333!important;stroke-width:1;}#my-svg [id$="-compositionEnd"],#my-svg .composition{fill:#333333!important;stroke:#333333!important;stroke-width:1;}#my-svg [id$="-dependencyStart"],#my-svg .dependency{fill:#333333!important;stroke:#333333!important;stroke-width:1;}#my-svg [id$="-dependencyEnd"],#my-svg .dependency{fill:#333333!important;stroke:#333333!important;stroke-width:1;}#my-svg [id$="-extensionStart"],#my-svg .extension{fill:transparent!important;stroke:#333333!important;stroke-width:1;}#my-svg [id$="-extensionEnd"],#my-svg .extension{fill:transparent!important;stroke:#333333!important;stroke-width:1;}#my-svg [id$="-aggregationStart"],#my-svg .aggregation{fill:transparent!important;stroke:#333333!important;stroke-width:1;}#my-svg [id$="-aggregationEnd"],#my-svg .aggregation{fill:transparent!important;stroke:#333333!important;stroke-width:1;}#my-svg [id$="-lollipopStart"],#my-svg .lollipop{fill:#ECECFF!important;stroke:#333333!important;stroke-width:1;}#my-svg [id$="-lollipopEnd"],#my-svg .lollipop{fill:#ECECFF!important;stroke:#333333!important;stroke-width:1;}#my-svg .edgeTerminals{font-size:11px;line-height:initial;}#my-svg .classTitleText{text-anchor:middle;font-size:18px;fill:#333;}#my-svg .edgeLabel[data-look="neo"]{background-color:rgba(232,232,232, 0.8);text-align:center;}#my-svg .edgeLabel[data-look="neo"] p{background-color:rgba(232,232,232, 0.8);}#my-svg .edgeLabel[data-look="neo"] rect{opacity:0.5;background-color:rgba(232,232,232, 0.8);fill:rgba(232,232,232, 0.8);}#my-svg .label-icon{display:inline-block;height:1em;overflow:visible;vertical-align:-0.125em;}#my-svg .node .label-icon path{fill:currentColor;stroke:revert;stroke-width:revert;}#my-svg .node .neo-node{stroke:#9370DB;}#my-svg [data-look="neo"].node rect,#my-svg [data-look="neo"].cluster rect,#my-svg [data-look="neo"].node polygon{stroke:#9370DB;filter:drop-shadow(1px 2px 2px rgba(185, 185, 185, 1));}#my-svg [data-look="neo"].swimlane.cluster rect{filter:none;}#my-svg [data-look="neo"].node path{stroke:#9370DB;stroke-width:1px;}#my-svg [data-look="neo"].node .outer-path{filter:drop-shadow(1px 2px 2px rgba(185, 185, 185, 1));}#my-svg [data-look="neo"].node .neo-line path{stroke:#9370DB;filter:none;}#my-svg [data-look="neo"].node circle{stroke:#9370DB;filter:drop-shadow(1px 2px 2px rgba(185, 185, 185, 1));}#my-svg [data-look="neo"].node circle .state-start{fill:#000000;}#my-svg [data-look="neo"].icon-shape .icon{fill:#9370DB;filter:drop-shadow(1px 2px 2px rgba(185, 185, 185, 1));}#my-svg [data-look="neo"].icon-shape .icon-neo path{stroke:#9370DB;filter:drop-shadow(1px 2px 2px rgba(185, 185, 185, 1));}#my-svg :root{--mermaid-font-family:"trebuchet ms",verdana,arial,sans-serif;}</style><g><defs><marker id="my-svg_classDiagram-aggregationStart" class="marker aggregation classDiagram" refX="18" refY="7" markerWidth="190" markerHeight="240" orient="auto" markerUnits="userSpaceOnUse"><path d="M 18,7 L9,13 L1,7 L9,1 Z"/></marker></defs><defs><marker id="my-svg_classDiagram-aggregationEnd" class="marker aggregation classDiagram" refX="1" refY="7" markerWidth="20" markerHeight="28" orient="auto" markerUnits="userSpaceOnUse"><path d="M 18,7 L9,13 L1,7 L9,1 Z"/></marker></defs><defs><marker id="my-svg_classDiagram-aggregationStart-margin" class="marker aggregation classDiagram" refX="15" refY="7" markerWidth="190" markerHeight="240" orient="auto" markerUnits="userSpaceOnUse"><path d="M 18,7 L9,13 L1,7 L9,1 Z" style="stroke-width: 2;"/></marker></defs><defs><marker id="my-svg_classDiagram-aggregationEnd-margin" class="marker aggregation classDiagram" refX="1" refY="7" markerWidth="20" markerHeight="28" orient="auto" markerUnits="userSpaceOnUse"><path d="M 18,7 L9,13 L1,7 L9,1 Z" style="stroke-width: 2;"/></marker></defs><defs><marker id="my-svg_classDiagram-extensionStart" class="marker extension classDiagram" refX="18" refY="7" markerWidth="20" markerHeight="28" orient="auto" markerUnits="userSpaceOnUse"><path d="M 1,7 L18,13 V 1 Z"/></marker></defs><defs><marker id="my-svg_classDiagram-extensionEnd" class="marker extension classDiagram" refX="1" refY="7" markerWidth="20" markerHeight="28" orient="auto" markerUnits="userSpaceOnUse"><path d="M 1,1 V 13 L18,7 Z"/></marker></defs><marker id="my-svg_classDiagram-extensionStart-margin" class="marker extension classDiagram" refX="18" refY="7" markerWidth="20" markerHeight="28" orient="auto" markerUnits="userSpaceOnUse" viewBox="0 0 20 14"><polygon points="10,7 18,13 18,1" style="stroke-width: 2; stroke-dasharray: 0;"/></marker><defs><marker id="my-svg_classDiagram-extensionEnd-margin" class="marker extension classDiagram" refX="9" refY="7" markerWidth="20" markerHeight="28" orient="auto" markerUnits="userSpaceOnUse" viewBox="0 0 20 14"><polygon points="10,1 10,13 18,7" style="stroke-width: 2; stroke-dasharray: 0;"/></marker></defs><defs><marker id="my-svg_classDiagram-compositionStart" class="marker composition classDiagram" refX="18" refY="7" markerWidth="190" markerHeight="240" orient="auto" markerUnits="userSpaceOnUse"><path d="M 18,7 L9,13 L1,7 L9,1 Z"/></marker></defs><defs><marker id="my-svg_classDiagram-compositionEnd" class="marker composition classDiagram" refX="1" refY="7" markerWidth="20" markerHeight="28" orient="auto" markerUnits="userSpaceOnUse"><path d="M 18,7 L9,13 L1,7 L9,1 Z"/></marker></defs><defs><marker id="my-svg_classDiagram-compositionStart-margin" class="marker composition classDiagram" refX="15" refY="7" markerWidth="190" markerHeight="240" orient="auto" markerUnits="userSpaceOnUse"><path viewBox="0 0 15 15" d="M 18,7 L9,13 L1,7 L9,1 Z" style="stroke-width: 0;"/></marker></defs><defs><marker id="my-svg_classDiagram-compositionEnd-margin" class="marker composition classDiagram" refX="3.5" refY="7" markerWidth="20" markerHeight="28" orient="auto" markerUnits="userSpaceOnUse"><path d="M 18,7 L9,13 L1,7 L9,1 Z" style="stroke-width: 0;"/></marker></defs><defs><marker id="my-svg_classDiagram-dependencyStart" class="marker dependency classDiagram" refX="6" refY="7" markerWidth="190" markerHeight="240" orient="auto" markerUnits="userSpaceOnUse"><path d="M 5,7 L9,13 L1,7 L9,1 Z"/></marker></defs><defs><marker id="my-svg_classDiagram-dependencyEnd" class="marker dependency classDiagram" refX="13" refY="7" markerWidth="20" markerHeight="28" orient="auto" markerUnits="userSpaceOnUse"><path d="M 18,7 L9,13 L14,7 L9,1 Z"/></marker></defs><defs><marker id="my-svg_classDiagram-dependencyStart-margin" class="marker dependency classDiagram" refX="4" refY="7" markerWidth="190" markerHeight="240" orient="auto" markerUnits="userSpaceOnUse"><path d="M 5,7 L9,13 L1,7 L9,1 Z" style="stroke-width: 0;"/></marker></defs><defs><marker id="my-svg_classDiagram-dependencyEnd-margin" class="marker dependency classDiagram" refX="16" refY="7" markerWidth="20" markerHeight="28" orient="auto" markerUnits="userSpaceOnUse"><path d="M 18,7 L9,13 L14,7 L9,1 Z" style="stroke-width: 0;"/></marker></defs><defs><marker id="my-svg_classDiagram-lollipopStart" class="marker lollipop classDiagram" refX="13" refY="7" markerWidth="190" markerHeight="240" orient="auto" markerUnits="userSpaceOnUse"><circle fill="transparent" cx="7" cy="7" r="6"/></marker></defs><defs><marker id="my-svg_classDiagram-lollipopEnd" class="marker lollipop classDiagram" refX="1" refY="7" markerWidth="190" markerHeight="240" orient="auto" markerUnits="userSpaceOnUse"><circle fill="transparent" cx="7" cy="7" r="6"/></marker></defs><defs><marker id="my-svg_classDiagram-lollipopStart-margin" class="marker lollipop classDiagram" refX="13" refY="7" markerWidth="190" markerHeight="240" orient="auto" markerUnits="userSpaceOnUse"><circle fill="transparent" cx="7" cy="7" r="6" stroke-width="2"/></marker></defs><defs><marker id="my-svg_classDiagram-lollipopEnd-margin" class="marker lollipop classDiagram" refX="1" refY="7" markerWidth="190" markerHeight="240" orient="auto" markerUnits="userSpaceOnUse"><circle fill="transparent" cx="7" cy="7" r="6" stroke-width="2"/></marker></defs><g class="root"><g class="clusters"/><g class="edgePaths"><path d="M443.261,153.467L423.753,164.389C404.245,175.311,365.229,197.156,338.314,214.244C311.4,231.333,296.587,243.667,289.181,249.833L281.774,256" id="my-svg-id_Error_IncompleteBriefError_1" class="edge-thickness-normal edge-pattern-solid relation" style=";;;" data-edge="true" data-et="edge" data-id="id_Error_IncompleteBriefError_1" data-points="W3sieCI6NDU4LjMxMjUsInkiOjE0NS4wMzk1OTYxMDIxMjA5fSx7IngiOjMyNi4yMTI4OTA2MjUsInkiOjIxOX0seyJ4IjoyODEuNzc0MzA5MTQyNTYyLCJ5IjoyNTZ9XQ==" data-look="classic" marker-start="url(#my-svg_classDiagram-extensionStart)"/><path d="M547.688,196.25L547.688,200.042C547.688,203.833,547.688,211.417,545.396,225.375C543.105,239.333,538.523,259.667,536.231,269.833L533.94,280" id="my-svg-id_Error_AskUserError_2" class="edge-thickness-normal edge-pattern-solid relation" style=";;;" data-edge="true" data-et="edge" data-id="id_Error_AskUserError_2" data-points="W3sieCI6NTQ3LjY4NzUsInkiOjE3OX0seyJ4Ijo1NDcuNjg3NSwieSI6MjE5fSx7IngiOjUzMy45NDAwNTAzNjE1NzAyLCJ5IjoyODB9XQ==" data-look="classic" marker-start="url(#my-svg_classDiagram-extensionStart)"/><path d="M653.478,129.15L699.868,144.125C746.258,159.1,839.037,189.05,878.606,214.192C918.174,239.333,904.532,259.667,897.711,269.833L890.89,280" id="my-svg-id_Error_SerpApiError_3" class="edge-thickness-normal edge-pattern-solid relation" style=";;;" data-edge="true" data-et="edge" data-id="id_Error_SerpApiError_3" data-points="W3sieCI6NjM3LjA2MjUsInkiOjEyMy44NTA5OTE5OTY5MDg1OX0seyJ4Ijo5MzEuODE2NDA2MjUsInkiOjIxOX0seyJ4Ijo4OTAuODkwMTI0NjEyNjAzNCwieSI6MjgwfV0=" data-look="classic" marker-start="url(#my-svg_classDiagram-extensionStart)"/><path d="M180.887,424L180.887,430.167C180.887,436.333,180.887,448.667,180.887,460C180.887,471.333,180.887,481.667,180.887,486.833L180.887,492" id="my-svg-id_IncompleteBriefError_ChatNeedsInfo_4" class="edge-thickness-normal edge-pattern-dashed relation" style=";;;" data-edge="true" data-et="edge" data-id="id_IncompleteBriefError_ChatNeedsInfo_4" data-points="W3sieCI6MTgwLjg4NjcxODc1LCJ5Ijo0MjR9LHsieCI6MTgwLjg4NjcxODc1LCJ5Ijo0NjF9LHsieCI6MTgwLjg4NjcxODc1LCJ5Ijo0OTh9XQ==" data-look="classic" marker-end="url(#my-svg_classDiagram-dependencyEnd)"/><path d="M520.418,417.25L520.418,424.542C520.418,431.833,520.418,446.417,520.418,461.875C520.418,477.333,520.418,493.667,520.418,501.833L520.418,510" id="my-svg-id_AskUserError_ChatAskUser_5" class="edge-thickness-normal edge-pattern-solid relation" style=";;;" data-edge="true" data-et="edge" data-id="id_AskUserError_ChatAskUser_5" data-points="W3sieCI6NTIwLjQxNzk2ODc1LCJ5Ijo0MDB9LHsieCI6NTIwLjQxNzk2ODc1LCJ5Ijo0NjF9LHsieCI6NTIwLjQxNzk2ODc1LCJ5Ijo1MTB9XQ==" data-look="classic" marker-start="url(#my-svg_classDiagram-compositionStart)"/><path d="M171.032,170L169.959,178.167C168.886,186.333,166.74,202.667,166.364,216.009C165.988,229.351,167.381,239.702,168.078,244.878L168.775,250.054" id="my-svg-id_runTripChat_IncompleteBriefError_6" class="edge-thickness-normal edge-pattern-dashed relation" style=";;;" data-edge="true" data-et="edge" data-id="id_runTripChat_IncompleteBriefError_6" data-points="W3sieCI6MTcxLjAzMjEwMDU1NDQzNTUsInkiOjE3MH0seyJ4IjoxNjQuNTkzNzUsInkiOjIxOX0seyJ4IjoxNjkuNTc1ODk3NDY5MDA4MjUsInkiOjI1Nn1d" data-look="classic" marker-end="url(#my-svg_classDiagram-dependencyEnd)"/><path d="M295.134,170L307.574,178.167C320.014,186.333,344.895,202.667,369.213,220.374C393.531,238.081,417.286,257.162,429.164,266.702L441.041,276.243" id="my-svg-id_runTripChat_AskUserError_7" class="edge-thickness-normal edge-pattern-dashed relation" style=";;;" data-edge="true" data-et="edge" data-id="id_runTripChat_AskUserError_7" data-points="W3sieCI6Mjk1LjEzMzg5OTMxOTU1NjQ2LCJ5IjoxNzB9LHsieCI6MzY5Ljc3NTM5MDYyNSwieSI6MjE5fSx7IngiOjQ0NS43MTkxNjk2Nzk3NTIxLCJ5IjoyODB9XQ==" data-look="classic" marker-end="url(#my-svg_classDiagram-dependencyEnd)"/><path d="M847.698,182L847.49,188.167C847.282,194.333,846.866,206.667,846.974,222.001C847.083,237.335,847.718,255.669,848.035,264.836L848.352,274.004" id="my-svg-id_BookingAdapter_SerpApiError_8" class="edge-thickness-normal edge-pattern-dashed relation" style=";;;" data-edge="true" data-et="edge" data-id="id_BookingAdapter_SerpApiError_8" data-points="W3sieCI6ODQ3LjY5ODEzMTkzMDQ0MzUsInkiOjE4Mn0seyJ4Ijo4NDYuNDQ5MjE4NzUsInkiOjIxOX0seyJ4Ijo4NDguNTU5Mjg3ODM1NzQzOCwieSI6MjgwfV0=" data-look="classic" marker-end="url(#my-svg_classDiagram-dependencyEnd)"/></g><g class="edgeLabels"><g class="edgeLabel"><g class="label" data-id="id_Error_IncompleteBriefError_1" transform="translate(0, 0)"><foreignObject width="0" height="0"><div xmlns="http://www.w3.org/1999/xhtml" class="labelBkg" style="display: table-cell; white-space: nowrap; line-height: 1.5; max-width: 200px; text-align: center;"><span class="edgeLabel"></span></div></foreignObject></g></g><g class="edgeLabel"><g class="label" data-id="id_Error_AskUserError_2" transform="translate(0, 0)"><foreignObject width="0" height="0"><div xmlns="http://www.w3.org/1999/xhtml" class="labelBkg" style="display: table-cell; white-space: nowrap; line-height: 1.5; max-width: 200px; text-align: center;"><span class="edgeLabel"></span></div></foreignObject></g></g><g class="edgeLabel"><g class="label" data-id="id_Error_SerpApiError_3" transform="translate(0, 0)"><foreignObject width="0" height="0"><div xmlns="http://www.w3.org/1999/xhtml" class="labelBkg" style="display: table-cell; white-space: nowrap; line-height: 1.5; max-width: 200px; text-align: center;"><span class="edgeLabel"></span></div></foreignObject></g></g><g class="edgeLabel" transform="translate(180.88671875, 461)"><g class="label" data-id="id_IncompleteBriefError_ChatNeedsInfo_4" transform="translate(-26.234375, -12)"><foreignObject width="52.46875" height="24"><div xmlns="http://www.w3.org/1999/xhtml" class="labelBkg" style="display: table-cell; white-space: nowrap; line-height: 1.5; max-width: 200px; text-align: center;"><span class="edgeLabel"><p>creates</p></span></div></foreignObject></g></g><g class="edgeLabel" transform="translate(520.41796875, 461)"><g class="label" data-id="id_AskUserError_ChatAskUser_5" transform="translate(-29.34375, -12)"><foreignObject width="58.6875" height="24"><div xmlns="http://www.w3.org/1999/xhtml" class="labelBkg" style="display: table-cell; white-space: nowrap; line-height: 1.5; max-width: 200px; text-align: center;"><span class="edgeLabel"><p>askUser</p></span></div></foreignObject></g></g><g class="edgeLabel" transform="translate(165.38108, 213.00788)"><g class="label" data-id="id_runTripChat_IncompleteBriefError_6" transform="translate(-23.5625, -12)"><foreignObject width="47.125" height="24"><div xmlns="http://www.w3.org/1999/xhtml" class="labelBkg" style="display: table-cell; white-space: nowrap; line-height: 1.5; max-width: 200px; text-align: center;"><span class="edgeLabel"><p>throws</p></span></div></foreignObject></g></g><g class="edgeLabel" transform="translate(372.941, 221.5427)"><g class="label" data-id="id_runTripChat_AskUserError_7" transform="translate(-23.5625, -12)"><foreignObject width="47.125" height="24"><div xmlns="http://www.w3.org/1999/xhtml" class="labelBkg" style="display: table-cell; white-space: nowrap; line-height: 1.5; max-width: 200px; text-align: center;"><span class="edgeLabel"><p>throws</p></span></div></foreignObject></g></g><g class="edgeLabel" transform="translate(846.86433, 231.00053)"><g class="label" data-id="id_BookingAdapter_SerpApiError_8" transform="translate(-65.3671875, -12)"><foreignObject width="130.734375" height="24"><div xmlns="http://www.w3.org/1999/xhtml" class="labelBkg" style="display: table-cell; white-space: nowrap; line-height: 1.5; max-width: 200px; text-align: center;"><span class="edgeLabel"><p>catches, falls back</p></span></div></foreignObject></g></g><g class="edgeTerminals" transform="translate(505.417969375, 417.50000053571426)"><g class="inner" transform="translate(-3.0625, -8.25)"><foreignObject width="6.125" height="16.5" style="width: 9px; height: 12px;"><div xmlns="http://www.w3.org/1999/xhtml" style="display: table-cell; white-space: nowrap; line-height: 1.5;"><span class="edgeLabel"><p>1</p></span></div></foreignObject></g></g><g class="edgeTerminals" transform="translate(530.417969375, 487.50000053571426)"><g class="inner" transform="translate(-3.0625, -8.25)"/><foreignObject width="6.125" height="16.5" style="width: 9px; height: 12px;"><div xmlns="http://www.w3.org/1999/xhtml" style="display: table-cell; white-space: nowrap; line-height: 1.5;"><span class="edgeLabel"><p>1</p></span></div></foreignObject></g></g><g class="nodes"><g class="node default" id="my-svg-classId-Error-0" data-look="classic" transform="translate(547.6875, 95)"><g class="basic label-container outer-path"><path d="M-89.375 -84 L89.375 -84 L89.375 84 L-89.375 84" stroke="none" stroke-width="0" fill="#ECECFF" style=""/><path d="M-89.375 -84 C-23.056954154281158 -84, 43.261091691437684 -84, 89.375 -84 M-89.375 -84 C-41.37416324393337 -84, 6.626673512133266 -84, 89.375 -84 M89.375 -84 C89.375 -32.89422008838714, 89.375 18.211559823225727, 89.375 84 M89.375 -84 C89.375 -35.0307375643841, 89.375 13.938524871231806, 89.375 84 M89.375 84 C21.2722083072548 84, -46.8305833854904 84, -89.375 84 M89.375 84 C25.72990451157679 84, -37.91519097684642 84, -89.375 84 M-89.375 84 C-89.375 43.09159686201486, -89.375 2.183193724029721, -89.375 -84 M-89.375 84 C-89.375 35.56996113011462, -89.375 -12.860077739770759, -89.375 -84" stroke="#9370DB" stroke-width="1.3" fill="none" stroke-dasharray="0 0" style=""/></g><g class="annotation-group text" transform="translate(-32.46875, -60)"><g class="label" style="" transform="translate(0,-12)"><foreignObject width="64.9375" height="24"><div xmlns="http://www.w3.org/1999/xhtml" style="display: table-cell; white-space: nowrap; line-height: 1.5; max-width: 113px; text-align: center;"><span class="nodeLabel markdown-node-label" style=""><p>«built-in»</p></span></div></foreignObject></g></g><g class="label-group text" transform="translate(-19.5625, -36)"><g class="label" style="font-weight: bolder" transform="translate(0,-12)"><foreignObject width="39.125" height="24"><div xmlns="http://www.w3.org/1999/xhtml" style="display: table-cell; white-space: nowrap; line-height: 1.5; max-width: 84px; text-align: center;"><span class="nodeLabel markdown-node-label" style=""><p>Error</p></span></div></foreignObject></g></g><g class="members-group text" transform="translate(-77.375, 12)"><g class="label" style="" transform="translate(0,-12)"><foreignObject width="97.390625" height="24"><div xmlns="http://www.w3.org/1999/xhtml" style="display: table-cell; white-space: nowrap; line-height: 1.5; max-width: 143px; text-align: center;"><span class="nodeLabel markdown-node-label" style=""><p>+name: string</p></span></div></foreignObject></g><g class="label" style="" transform="translate(0,12)"><foreignObject width="122.28125" height="24"><div xmlns="http://www.w3.org/1999/xhtml" style="display: table-cell; white-space: nowrap; line-height: 1.5; max-width: 163px; text-align: center;"><span class="nodeLabel markdown-node-label" style=""><p>+message: string</p></span></div></foreignObject></g></g><g class="methods-group text" transform="translate(-77.375, 84)"/><g class="divider" style=""><path d="M-89.375 -12 C-46.32965539132328 -11.999759186883308, -3.284310782646557 -11.999518373766616, 89.375 -11.999 M-89.375 -12 C-45.120639391704394 -11.999752423157437, -0.866278783408788 -11.999504846314872, 89.375 -11.999" stroke="#9370DB" stroke-width="1.3" fill="none" stroke-dasharray="0 0" style=""/></g><g class="divider" style=""><path d="M-89.375 60 C-45.42954855962276 60.000245848679384, -1.4840971192455186 60.000491697358775, 89.375 60.001 M-89.375 60 C-36.496870755223895 60.00029582170207, 16.38125848955221 60.000591643404135, 89.375 60.001" stroke="#9370DB" stroke-width="1.3" fill="none" stroke-dasharray="0 0" style=""/></g></g><g class="node default" id="my-svg-classId-IncompleteBriefError-1" data-look="classic" transform="translate(180.88671875, 340)"><g class="basic label-container outer-path"><path d="M-149.63671875 -84 L149.63671875 -84 L149.63671875 84 L-149.63671875 84" stroke="none" stroke-width="0" fill="#ECECFF" style=""/><path d="M-149.63671875 -84 C-47.54023845509569 -84, 54.55624183980862 -84, 149.63671875 -84 M-149.63671875 -84 C-87.65988615503369 -84, -25.683053560067393 -84, 149.63671875 -84 M149.63671875 -84 C149.63671875 -34.091734527461284, 149.63671875 15.816530945077432, 149.63671875 84 M149.63671875 -84 C149.63671875 -32.98450842454175, 149.63671875 18.030983150916498, 149.63671875 84 M149.63671875 84 C81.18094932336062 84, 12.725179896721244 84, -149.63671875 84 M149.63671875 84 C74.70730610619908 84, -0.22210653760183163 84, -149.63671875 84 M-149.63671875 84 C-149.63671875 36.679009751915856, -149.63671875 -10.641980496168287, -149.63671875 -84 M-149.63671875 84 C-149.63671875 20.648107328964443, -149.63671875 -42.703785342071114, -149.63671875 -84" stroke="#9370DB" stroke-width="1.3" fill="none" stroke-dasharray="0 0" style=""/></g><g class="annotation-group text" transform="translate(0, -60)"/><g class="label-group text" transform="translate(-80.0234375, -60)"><g class="label" style="font-weight: bolder" transform="translate(0,-12)"><foreignObject width="160.046875" height="24"><div xmlns="http://www.w3.org/1999/xhtml" style="display: table-cell; white-space: nowrap; line-height: 1.5; max-width: 189px; text-align: center;"><span class="nodeLabel markdown-node-label" style=""><p>IncompleteBriefError</p></span></div></foreignObject></g></g><g class="members-group text" transform="translate(-137.63671875, -12)"><g class="label" style="" transform="translate(0,-12)"><foreignObject width="120.484375" height="24"><div xmlns="http://www.w3.org/1999/xhtml" style="display: table-cell; white-space: nowrap; line-height: 1.5; max-width: 169px; text-align: center;"><span class="nodeLabel markdown-node-label" style=""><p>+missing: string[]</p></span></div></foreignObject></g><g class="label" style="" transform="translate(0,12)"><foreignObject width="169.703125" height="24"><div xmlns="http://www.w3.org/1999/xhtml" style="display: table-cell; white-space: nowrap; line-height: 1.5; max-width: 218px; text-align: center;"><span class="nodeLabel markdown-node-label" style=""><p>+known: PartialTripBrief</p></span></div></foreignObject></g><g class="label" style="" transform="translate(0,36)"><foreignObject width="195.25" height="24"><div xmlns="http://www.w3.org/1999/xhtml" style="display: table-cell; white-space: nowrap; line-height: 1.5; max-width: 232px; text-align: center;"><span class="nodeLabel markdown-node-label" style=""><p>+needsInfo: ChatNeedsInfo</p></span></div></foreignObject></g></g><g class="methods-group text" transform="translate(-137.63671875, 84)"/><g class="divider" style=""><path d="M-149.63671875 -36 C-49.05885246016034 -35.999663926517734, 51.519013829679324 -35.999327853035474, 149.63671875 -35.999 M-149.63671875 -36 C-66.64461788096071 -35.99972268804889, 16.347482988078582 -35.999445376097775, 149.63671875 -35.999" stroke="#9370DB" stroke-width="1.3" fill="none" stroke-dasharray="0 0" style=""/></g><g class="divider" style=""><path d="M-149.63671875 60 C-72.08268367351069 60.000259141057505, 5.471351402978627 60.000518282115, 149.63671875 60.001 M-149.63671875 60 C-71.87206034766945 60.000259844839725, 5.892598054661107 60.00051968967946, 149.63671875 60.001" stroke="#9370DB" stroke-width="1.3" fill="none" stroke-dasharray="0 0" style=""/></g></g><g class="node default" id="my-svg-classId-AskUserError-2" data-look="classic" transform="translate(520.41796875, 340)"><g class="basic label-container outer-path"><path d="M-123.6015625 -60 L123.6015625 -60 L123.6015625 60 L-123.6015625 60" stroke="none" stroke-width="0" fill="#ECECFF" style=""/><path d="M-123.6015625 -60 C-42.77905859356362 -60, 38.04344531287276 -60, 123.6015625 -60 M-123.6015625 -60 C-65.12312224617355 -60, -6.6446819923471026 -60, 123.6015625 -60 M123.6015625 -60 C123.6015625 -28.483219504268536, 123.6015625 3.0335609914629273, 123.6015625 60 M123.6015625 -60 C123.6015625 -28.366085478298228, 123.6015625 3.2678290434035446, 123.6015625 60 M123.6015625 60 C73.36799597513902 60, 23.13442945027805 60, -123.6015625 60 M123.6015625 60 C55.45635601412913 60, -12.688850471741745 60, -123.6015625 60 M-123.6015625 60 C-123.6015625 19.744750370596257, -123.6015625 -20.510499258807485, -123.6015625 -60 M-123.6015625 60 C-123.6015625 30.21014207813493, -123.6015625 0.42028415626985804, -123.6015625 -60" stroke="#9370DB" stroke-width="1.3" fill="none" stroke-dasharray="0 0" style=""/></g><g class="annotation-group text" transform="translate(0, -36)"/><g class="label-group text" transform="translate(-52.03125, -36)"><g class="label" style="font-weight: bolder" transform="translate(0,-12)"><foreignObject width="104.0625" height="24"><div xmlns="http://www.w3.org/1999/xhtml" style="display: table-cell; white-space: nowrap; line-height: 1.5; max-width: 140px; text-align: center;"><span class="nodeLabel markdown-node-label" style=""><p>AskUserError</p></span></div></foreignObject></g></g><g class="members-group text" transform="translate(-111.6015625, 12)"><g class="label" style="" transform="translate(0,-12)"><foreignObject width="171.171875" height="24"><div xmlns="http://www.w3.org/1999/xhtml" style="display: table-cell; white-space: nowrap; line-height: 1.5; max-width: 210px; text-align: center;"><span class="nodeLabel markdown-node-label" style=""><p>+askUser: ChatAskUser</p></span></div></foreignObject></g></g><g class="methods-group text" transform="translate(-111.6015625, 60)"/><g class="divider" style=""><path d="M-123.6015625 -12 C-71.89351313403382 -11.999790827687288, -20.18546376806765 -11.999581655374575, 123.6015625 -11.999 M-123.6015625 -12 C-57.99921824895374 -11.999734621703302, 7.603126002092523 -11.999469243406603, 123.6015625 -11.999" stroke="#9370DB" stroke-width="1.3" fill="none" stroke-dasharray="0 0" style=""/></g><g class="divider" style=""><path d="M-123.6015625 36 C-42.581993798497294 36.00032774492111, 38.43757490300541 36.000655489842224, 123.6015625 36.001 M-123.6015625 36 C-45.03101307553783 36.00031783801044, 33.539536348924344 36.00063567602088, 123.6015625 36.001" stroke="#9370DB" stroke-width="1.3" fill="none" stroke-dasharray="0 0" style=""/></g></g><g class="node default" id="my-svg-classId-SerpApiError-3" data-look="classic" transform="translate(850.634765625, 340)"><g class="basic label-container outer-path"><path d="M-144.5078125 -60 L144.5078125 -60 L144.5078125 60 L-144.5078125 60" stroke="none" stroke-width="0" fill="#ECECFF" style=""/><path d="M-144.5078125 -60 C-49.54002348886861 -60, 45.427765522262774 -60, 144.5078125 -60 M-144.5078125 -60 C-36.06389591777287 -60, 72.38002066445426 -60, 144.5078125 -60 M144.5078125 -60 C144.5078125 -27.079497103388704, 144.5078125 5.8410057932225925, 144.5078125 60 M144.5078125 -60 C144.5078125 -12.27630713600491, 144.5078125 35.44738572799018, 144.5078125 60 M144.5078125 60 C83.8767473126974 60, 23.245682125394808 60, -144.5078125 60 M144.5078125 60 C37.4805181289623 60, -69.5467762420754 60, -144.5078125 60 M-144.5078125 60 C-144.5078125 28.259531477529684, -144.5078125 -3.4809370449406316, -144.5078125 -60 M-144.5078125 60 C-144.5078125 32.00742027117381, -144.5078125 4.0148405423476135, -144.5078125 -60" stroke="#9370DB" stroke-width="1.3" fill="none" stroke-dasharray="0 0" style=""/></g><g class="annotation-group text" transform="translate(0, -36)"/><g class="label-group text" transform="translate(-50.234375, -36)"><g class="label" style="font-weight: bolder" transform="translate(0,-12)"><foreignObject width="100.46875" height="24"><div xmlns="http://www.w3.org/1999/xhtml" style="display: table-cell; white-space: nowrap; line-height: 1.5; max-width: 138px; text-align: center;"><span class="nodeLabel markdown-node-label" style=""><p>SerpApiError</p></span></div></foreignObject></g></g><g class="members-group text" transform="translate(-132.5078125, 12)"><g class="label" style="" transform="translate(0,-12)"><foreignObject width="214.78125" height="24"><div xmlns="http://www.w3.org/1999/xhtml" style="display: table-cell; white-space: nowrap; line-height: 1.5; max-width: 248px; text-align: center;"><span class="nodeLabel markdown-node-label" style=""><p>+reason: SerpApiErrorReason</p></span></div></foreignObject></g></g><g class="methods-group text" transform="translate(-132.5078125, 60)"/><g class="divider" style=""><path d="M-144.5078125 -12 C-83.93253230965959 -11.99979040828609, -23.357252119319185 -11.999580816572182, 144.5078125 -11.999 M-144.5078125 -12 C-56.8889436514725 -11.999696836913753, 30.729925197054996 -11.999393673827507, 144.5078125 -11.999" stroke="#9370DB" stroke-width="1.3" fill="none" stroke-dasharray="0 0" style=""/></g><g class="divider" style=""><path d="M-144.5078125 36 C-81.22536841174914 36.00021895855661, -17.942924323498275 36.000437917113224, 144.5078125 36.001 M-144.5078125 36 C-83.21337026645406 36.00021208002935, -21.918928032908127 36.00042416005871, 144.5078125 36.001" stroke="#9370DB" stroke-width="1.3" fill="none" stroke-dasharray="0 0" style=""/></g></g><g class="node default" id="my-svg-classId-ChatNeedsInfo-4" data-look="classic" transform="translate(180.88671875, 582)"><g class="basic label-container outer-path"><path d="M-125.078125 -84 L125.078125 -84 L125.078125 84 L-125.078125 84" stroke="none" stroke-width="0" fill="#ECECFF" style=""/><path d="M-125.078125 -84 C-40.124868817898914 -84, 44.82838736420217 -84, 125.078125 -84 M-125.078125 -84 C-45.27395457183012 -84, 34.530215856339765 -84, 125.078125 -84 M125.078125 -84 C125.078125 -42.64348338140011, 125.078125 -1.286966762800219, 125.078125 84 M125.078125 -84 C125.078125 -38.448417851959526, 125.078125 7.103164296080948, 125.078125 84 M125.078125 84 C32.424844458843495 84, -60.22843608231301 84, -125.078125 84 M125.078125 84 C69.85600235368699 84, 14.633879707373978 84, -125.078125 84 M-125.078125 84 C-125.078125 35.06217595170441, -125.078125 -13.875648096591178, -125.078125 -84 M-125.078125 84 C-125.078125 18.466695862457527, -125.078125 -47.066608275084945, -125.078125 -84" stroke="#9370DB" stroke-width="1.3" fill="none" stroke-dasharray="0 0" style=""/></g><g class="annotation-group text" transform="translate(0, -60)"/><g class="label-group text" transform="translate(-56.453125, -60)"><g class="label" style="font-weight: bolder" transform="translate(0,-12)"><foreignObject width="112.90625" height="24"><div xmlns="http://www.w3.org/1999/xhtml" style="display: table-cell; white-space: nowrap; line-height: 1.5; max-width: 147px; text-align: center;"><span class="nodeLabel markdown-node-label" style=""><p>ChatNeedsInfo</p></span></div></foreignObject></g></g><g class="members-group text" transform="translate(-113.078125, -12)"><g class="label" style="" transform="translate(0,-12)"><foreignObject width="147.46875" height="24"><div xmlns="http://www.w3.org/1999/xhtml" style="display: table-cell; white-space: nowrap; line-height: 1.5; max-width: 191px; text-align: center;"><span class="nodeLabel markdown-node-label" style=""><p>+type = "needs_info"</p></span></div></foreignObject></g><g class="label" style="" transform="translate(0,12)"><foreignObject width="117.859375" height="24"><div xmlns="http://www.w3.org/1999/xhtml" style="display: table-cell; white-space: nowrap; line-height: 1.5; max-width: 163px; text-align: center;"><span class="nodeLabel markdown-node-label" style=""><p>+question: string</p></span></div></foreignObject></g><g class="label" style="" transform="translate(0,36)"><foreignObject width="169.703125" height="24"><div xmlns="http://www.w3.org/1999/xhtml" style="display: table-cell; white-space: nowrap; line-height: 1.5; max-width: 218px; text-align: center;"><span class="nodeLabel markdown-node-label" style=""><p>+known: PartialTripBrief</p></span></div></foreignObject></g></g><g class="methods-group text" transform="translate(-113.078125, 84)"/><g class="divider" style=""><path d="M-125.078125 -36 C-27.76974370602305 -35.99961100959383, 69.5386375879539 -35.999222019187656, 125.078125 -35.999 M-125.078125 -36 C-41.83718081402843 -35.999667244195635, 41.40376337194314 -35.99933448839127, 125.078125 -35.999" stroke="#9370DB" stroke-width="1.3" fill="none" stroke-dasharray="0 0" style=""/></g><g class="divider" style=""><path d="M-125.078125 60 C-54.23111920378146 60.000283211016296, 16.61588659243708 60.0005664220326, 125.078125 60.001 M-125.078125 60 C-58.44242568730506 60.000266376312055, 8.193273625389878 60.00053275262411, 125.078125 60.001" stroke="#9370DB" stroke-width="1.3" fill="none" stroke-dasharray="0 0" style=""/></g></g><g class="node default" id="my-svg-classId-ChatAskUser-5" data-look="classic" transform="translate(520.41796875, 582)"><g class="basic label-container outer-path"><path d="M-130.29296875 -72 L130.29296875 -72 L130.29296875 72 L-130.29296875 72" stroke="none" stroke-width="0" fill="#ECECFF" style=""/><path d="M-130.29296875 -72 C-75.18044168674933 -72, -20.067914623498652 -72, 130.29296875 -72 M-130.29296875 -72 C-69.00575774254825 -72, -7.71854673509651 -72, 130.29296875 -72 M130.29296875 -72 C130.29296875 -37.82216954092131, 130.29296875 -3.6443390818426167, 130.29296875 72 M130.29296875 -72 C130.29296875 -28.218966398164817, 130.29296875 15.562067203670367, 130.29296875 72 M130.29296875 72 C45.37633945141528 72, -39.54028984716945 72, -130.29296875 72 M130.29296875 72 C52.062549360245995 72, -26.16787002950801 72, -130.29296875 72 M-130.29296875 72 C-130.29296875 16.328379261702125, -130.29296875 -39.34324147659575, -130.29296875 -72 M-130.29296875 72 C-130.29296875 28.636866793992084, -130.29296875 -14.726266412015832, -130.29296875 -72" stroke="#9370DB" stroke-width="1.3" fill="none" stroke-dasharray="0 0" style=""/></g><g class="annotation-group text" transform="translate(0, -48)"/><g class="label-group text" transform="translate(-50.2421875, -48)"><g class="label" style="font-weight: bolder" transform="translate(0,-12)"><foreignObject width="100.484375" height="24"><div xmlns="http://www.w3.org/1999/xhtml" style="display: table-cell; white-space: nowrap; line-height: 1.5; max-width: 137px; text-align: center;"><span class="nodeLabel markdown-node-label" style=""><p>ChatAskUser</p></span></div></foreignObject></g></g><g class="members-group text" transform="translate(-118.29296875, 0)"><g class="label" style="" transform="translate(0,-12)"><foreignObject width="134.109375" height="24"><div xmlns="http://www.w3.org/1999/xhtml" style="display: table-cell; white-space: nowrap; line-height: 1.5; max-width: 177px; text-align: center;"><span class="nodeLabel markdown-node-label" style=""><p>+type = "ask_user"</p></span></div></foreignObject></g><g class="label" style="" transform="translate(0,12)"><foreignObject width="186.34375" height="24"><div xmlns="http://www.w3.org/1999/xhtml" style="display: table-cell; white-space: nowrap; line-height: 1.5; max-width: 225px; text-align: center;"><span class="nodeLabel markdown-node-label" style=""><p>+questions: Question[1..4]</p></span></div></foreignObject></g></g><g class="methods-group text" transform="translate(-118.29296875, 72)"/><g class="divider" style=""><path d="M-130.29296875 -24 C-55.53201885204258 -23.99971310443451, 19.228931045914834 -23.999426208869018, 130.29296875 -23.999 M-130.29296875 -24 C-49.168519201593924 -23.99968868446883, 31.955930346812153 -23.999377368937658, 130.29296875 -23.999" stroke="#9370DB" stroke-width="1.3" fill="none" stroke-dasharray="0 0" style=""/></g><g class="divider" style=""><path d="M-130.29296875 48 C-49.32259098977606 48.000310724279814, 31.64778677044788 48.000621448559635, 130.29296875 48.001 M-130.29296875 48 C-28.866793150031583 48.000389223519015, 72.55938244993683 48.00077844703803, 130.29296875 48.001" stroke="#9370DB" stroke-width="1.3" fill="none" stroke-dasharray="0 0" style=""/></g></g><g class="node default" id="my-svg-classId-runTripChat-6" data-look="classic" transform="translate(180.88671875, 95)"><g class="basic label-container outer-path"><path d="M-172.88671875 -75 L172.88671875 -75 L172.88671875 75 L-172.88671875 75" stroke="none" stroke-width="0" fill="#ECECFF" style=""/><path d="M-172.88671875 -75 C-91.1902390862549 -75, -9.493759422509811 -75, 172.88671875 -75 M-172.88671875 -75 C-84.14523460141208 -75, 4.59624954717583 -75, 172.88671875 -75 M172.88671875 -75 C172.88671875 -18.57977007822459, 172.88671875 37.84045984355082, 172.88671875 75 M172.88671875 -75 C172.88671875 -37.231718189691186, 172.88671875 0.5365636206176276, 172.88671875 75 M172.88671875 75 C61.115530940333684 75, -50.65565686933263 75, -172.88671875 75 M172.88671875 75 C102.12883876563589 75, 31.37095878127178 75, -172.88671875 75 M-172.88671875 75 C-172.88671875 15.936183497382608, -172.88671875 -43.127633005234784, -172.88671875 -75 M-172.88671875 75 C-172.88671875 38.77719301889216, -172.88671875 2.554386037784326, -172.88671875 -75" stroke="#9370DB" stroke-width="1.3" fill="none" stroke-dasharray="0 0" style=""/></g><g class="annotation-group text" transform="translate(-35.140625, -51)"><g class="label" style="" transform="translate(0,-12)"><foreignObject width="70.28125" height="24"><div xmlns="http://www.w3.org/1999/xhtml" style="display: table-cell; white-space: nowrap; line-height: 1.5; max-width: 114px; text-align: center;"><span class="nodeLabel markdown-node-label" style=""><p>«module»</p></span></div></foreignObject></g></g><g class="label-group text" transform="translate(-45.3359375, -27)"><g class="label" style="font-weight: bolder" transform="translate(0,-12)"><foreignObject width="90.671875" height="24"><div xmlns="http://www.w3.org/1999/xhtml" style="display: table-cell; white-space: nowrap; line-height: 1.5; max-width: 129px; text-align: center;"><span class="nodeLabel markdown-node-label" style=""><p>runTripChat</p></span></div></foreignObject></g></g><g class="members-group text" transform="translate(-160.88671875, 21)"/><g class="methods-group text" transform="translate(-160.88671875, 51)"><g class="label" style="" transform="translate(0,-12)"><foreignObject width="276.4375" height="24"><div xmlns="http://www.w3.org/1999/xhtml" style="display: table-cell; white-space: nowrap; line-height: 1.5; max-width: 303px; text-align: center;"><span class="nodeLabel markdown-node-label" style=""><p>+runTripChat(request) : ChatResponse</p></span></div></foreignObject></g></g><g class="divider" style=""><path d="M-172.88671875 -3 C-61.736737101326554 -2.9996785467893305, 49.41324454734689 -2.9993570935786606, 172.88671875 -2.999 M-172.88671875 -3 C-47.27050070222165 -2.9996367094622536, 78.3457173455567 -2.999273418924507, 172.88671875 -2.999" stroke="#9370DB" stroke-width="1.3" fill="none" stroke-dasharray="0 0" style=""/></g><g class="divider" style=""><path d="M-172.88671875 21 C-64.7408737782324 21.00031276504567, 43.404971193535204 21.000625530091344, 172.88671875 21.001 M-172.88671875 21 C-73.39808912014773 21.00028772779757, 26.09054050970454 21.00057545559514, 172.88671875 21.001" stroke="#9370DB" stroke-width="1.3" fill="none" stroke-dasharray="0 0" style=""/></g></g><g class="node default" id="my-svg-classId-BookingAdapter-7" data-look="classic" transform="translate(850.634765625, 95)"><g class="basic label-container outer-path"><path d="M-159.38671875 -87 L159.38671875 -87 L159.38671875 87 L-159.38671875 87" stroke="none" stroke-width="0" fill="#ECECFF" style=""/><path d="M-159.38671875 -87 C-33.755042306770505 -87, 91.87663413645899 -87, 159.38671875 -87 M-159.38671875 -87 C-56.77815426082465 -87, 45.8304102283507 -87, 159.38671875 -87 M159.38671875 -87 C159.38671875 -26.612359249452517, 159.38671875 33.775281501094966, 159.38671875 87 M159.38671875 -87 C159.38671875 -29.027515202952102, 159.38671875 28.944969594095795, 159.38671875 87 M159.38671875 87 C54.95412576423385 87, -49.4784672215323 87, -159.38671875 87 M159.38671875 87 C59.052683727352985 87, -41.28135129529403 87, -159.38671875 87 M-159.38671875 87 C-159.38671875 21.069560703188287, -159.38671875 -44.860878593623426, -159.38671875 -87 M-159.38671875 87 C-159.38671875 35.042011450744226, -159.38671875 -16.915977098511547, -159.38671875 -87" stroke="#9370DB" stroke-width="1.3" fill="none" stroke-dasharray="0 0" style=""/></g><g class="annotation-group text" transform="translate(-35.140625, -63)"><g class="label" style="" transform="translate(0,-12)"><foreignObject width="70.28125" height="24"><div xmlns="http://www.w3.org/1999/xhtml" style="display: table-cell; white-space: nowrap; line-height: 1.5; max-width: 114px; text-align: center;"><span class="nodeLabel markdown-node-label" style=""><p>«module»</p></span></div></foreignObject></g></g><g class="label-group text" transform="translate(-62.2265625, -39)"><g class="label" style="font-weight: bolder" transform="translate(0,-12)"><foreignObject width="124.453125" height="24"><div xmlns="http://www.w3.org/1999/xhtml" style="display: table-cell; white-space: nowrap; line-height: 1.5; max-width: 157px; text-align: center;"><span class="nodeLabel markdown-node-label" style=""><p>BookingAdapter</p></span></div></foreignObject></g></g><g class="members-group text" transform="translate(-147.38671875, 9)"/><g class="methods-group text" transform="translate(-147.38671875, 39)"><g class="label" style="" transform="translate(0,-12)"><foreignObject width="218.328125" height="24"><div xmlns="http://www.w3.org/1999/xhtml" style="display: table-cell; white-space: nowrap; line-height: 1.5; max-width: 254px; text-align: center;"><span class="nodeLabel markdown-node-label" style=""><p>+searchStays(q) : StayOption[]</p></span></div></foreignObject></g><g class="label" style="" transform="translate(0,12)"><foreignObject width="232.546875" height="24"><div xmlns="http://www.w3.org/1999/xhtml" style="display: table-cell; white-space: nowrap; line-height: 1.5; max-width: 273px; text-align: center;"><span class="nodeLabel markdown-node-label" style=""><p>+searchFlights(q) : FlightOption[]</p></span></div></foreignObject></g></g><g class="divider" style=""><path d="M-159.38671875 -15 C-72.6261777734879 -14.999727830080019, 14.134363203024208 -14.999455660160038, 159.38671875 -14.999 M-159.38671875 -15 C-57.6889524048173 -14.999680971641983, 44.0088139403654 -14.999361943283965, 159.38671875 -14.999" stroke="#9370DB" stroke-width="1.3" fill="none" stroke-dasharray="0 0" style=""/></g><g class="divider" style=""><path d="M-159.38671875 9 C-35.956663900725914 9.00038720307381, 87.47339094854817 9.000774406147622, 159.38671875 9.001 M-159.38671875 9 C-59.66694220496211 9.00031282335607, 40.052834340075776 9.000625646712141, 159.38671875 9.001" stroke="#9370DB" stroke-width="1.3" fill="none" stroke-dasharray="0 0" style=""/></g></g></g></g></g><defs><filter id="my-svg-drop-shadow" height="130%" width="130%"><feDropShadow dx="4" dy="4" stdDeviation="0" flood-opacity="0.06" flood-color="#000000"/></filter></defs><defs><filter id="my-svg-drop-shadow-small" height="150%" width="150%"><feDropShadow dx="2" dy="2" stdDeviation="0" flood-opacity="0.06" flood-color="#000000"/></filter></defs></svg>